<svg xmlns="http://www.w3.org/2000/svg" viewBox="0 0 171.08 256.12"><defs><style>.cls-1,.cls-4{fill:#fff;}.cls-1{stroke:#fdfcfd;}.cls-1,.cls-3,.cls-4,.cls-5,.cls-6{stroke-miterlimit:10;}.cls-2,.cls-5{fill:#fab347;}.cls-3{fill:#f5e77d;stroke-width:3px;}.cls-3,.cls-4,.cls-5{stroke:#f5f2f3;}.cls-4,.cls-5,.cls-6{stroke-width:2px;}.cls-6{fill:#f6d394;stroke:#fff;}.cls-7{fill:#e19528;}</style></defs><title>cards</title><g id="card_orange"><rect class="cls-1" x="0.5" y="0.78" width="170.08" height="255.12" rx="7.14"/><rect class="cls-2" x="9.63" y="11.13" width="151.83" height="234.41"/><rect class="cls-3" x="20.36" y="30" width="130.37" height="196.67"/><rect class="cls-4" x="26.87" y="37.13" width="117.33" height="180.69"/><rect class="cls-5" x="26.87" y="37.99" width="117.33" height="180.69"/><circle class="cls-6" cx="85.54" cy="128.34" r="69.39"/><g id="seven_rails"><rect class="cls-7" x="62.37" y="81.74" width="7.1" height="9.12" transform="translate(-20.38 152.22) rotate(-90)"/><rect class="cls-7" x="62.58" y="85.15" width="14.06" height="1.74" transform="translate(-16.42 155.63) rotate(-90)"/><rect class="cls-7" x="66.73" y="85.43" width="14.06" height="1.74" transform="translate(-12.54 160.06) rotate(-90)"/><rect class="cls-7" x="81.42" y="74.22" width="7.1" height="24.17" transform="translate(-1.33 171.27) rotate(-90)"/><rect class="cls-7" x="100.98" y="81.11" width="7.1" height="10.37" transform="translate(190.83 -18.23) rotate(90)"/><rect class="cls-7" x="93.19" y="85.15" width="14.06" height="1.74" transform="translate(186.24 -14.19) rotate(90)"/><rect class="cls-7" x="89.16" y="85.15" width="14.06" height="1.74" transform="translate(182.21 -10.16) rotate(90)"/><rect class="cls-7" x="62.37" y="109.86" width="7.1" height="9.12" transform="translate(-48.5 180.34) rotate(-90)"/><rect class="cls-7" x="62.58" y="113.27" width="14.06" height="1.74" transform="translate(-44.53 183.74) rotate(-90)"/><rect class="cls-7" x="66.73" y="113.54" width="14.06" height="1.74" transform="translate(-40.65 188.18) rotate(-90)"/><rect class="cls-7" x="81.42" y="102.33" width="7.1" height="24.17" transform="translate(-29.44 199.39) rotate(-90)"/><rect class="cls-7" x="100.98" y="109.23" width="7.1" height="10.37" transform="translate(218.95 9.88) rotate(90)"/><rect class="cls-7" x="93.19" y="113.27" width="14.06" height="1.74" transform="translate(214.36 13.92) rotate(90)"/><rect class="cls-7" x="89.16" y="113.27" width="14.06" height="1.74" transform="translate(210.32 17.95) rotate(90)"/><rect class="cls-7" x="62.37" y="95.8" width="7.1" height="9.12" transform="translate(-34.44 166.28) rotate(-90)"/><rect class="cls-7" x="62.58" y="99.21" width="14.06" height="1.74" transform="translate(-30.48 169.69) rotate(-90)"/><rect class="cls-7" x="66.73" y="99.49" width="14.06" height="1.74" transform="translate(-26.6 174.12) rotate(-90)"/><rect class="cls-7" x="81.42" y="88.27" width="7.1" height="24.17" transform="translate(-15.38 185.33) rotate(-90)"/><rect class="cls-7" x="100.98" y="95.17" width="7.1" height="10.37" transform="translate(204.89 -4.17) rotate(90)"/><rect class="cls-7" x="93.19" y="99.21" width="14.06" height="1.74" transform="translate(200.3 -0.14) rotate(90)"/><rect class="cls-7" x="89.16" y="99.21" width="14.06" height="1.74" transform="translate(196.27 3.9) rotate(90)"/><rect class="cls-7" x="62.37" y="137.97" width="7.1" height="9.12" transform="translate(-76.61 208.45) rotate(-90)"/><rect class="cls-7" x="62.58" y="141.38" width="14.06" height="1.74" transform="translate(-72.65 211.86) rotate(-90)"/><rect class="cls-7" x="66.73" y="141.66" width="14.06" height="1.74" transform="translate(-68.77 216.29) rotate(-90)"/><rect class="cls-7" x="81.42" y="130.45" width="7.1" height="24.17" transform="translate(-57.56 227.51) rotate(-90)"/><rect class="cls-7" x="100.98" y="137.35" width="7.1" height="10.37" transform="translate(247.06 38) rotate(90)"/><rect class="cls-7" x="93.19" y="141.38" width="14.06" height="1.74" transform="translate(242.47 42.04) rotate(90)"/><rect class="cls-7" x="89.16" y="141.38" width="14.06" height="1.74" transform="translate(238.44 46.07) rotate(90)"/><rect class="cls-7" x="62.37" y="123.92" width="7.1" height="9.12" transform="translate(-62.55 194.39) rotate(-90)"/><rect class="cls-7" x="62.58" y="127.33" width="14.06" height="1.74" transform="translate(-58.59 197.8) rotate(-90)"/><rect class="cls-7" x="66.73" y="127.6" width="14.06" height="1.74" transform="translate(-54.71 202.24) rotate(-90)"/><rect class="cls-7" x="81.42" y="116.39" width="7.1" height="24.17" transform="translate(-43.5 213.45) rotate(-90)"/><rect class="cls-7" x="100.98" y="123.29" width="7.1" height="10.37" transform="translate(233.01 23.94) rotate(90)"/><rect class="cls-7" x="93.19" y="127.33" width="14.06" height="1.74" transform="translate(228.41 27.98) rotate(90)"/><rect class="cls-7" x="89.16" y="127.33" width="14.06" height="1.74" transform="translate(224.38 32.01) rotate(90)"/><rect class="cls-7" x="62.37" y="166.09" width="7.1" height="9.12" transform="translate(-104.73 236.57) rotate(-90)"/><rect class="cls-7" x="62.58" y="169.5" width="14.06" height="1.74" transform="translate(-100.77 239.98) rotate(-90)"/><rect class="cls-7" x="66.73" y="169.78" width="14.06" height="1.74" transform="translate(-96.89 244.41) rotate(-90)"/><rect class="cls-7" x="81.42" y="158.57" width="7.1" height="24.17" transform="translate(-85.68 255.62) rotate(-90)"/><rect class="cls-7" x="100.98" y="165.46" width="7.1" height="10.37" transform="translate(275.18 66.12) rotate(90)"/><rect class="cls-7" x="93.19" y="169.5" width="14.06" height="1.74" transform="translate(270.59 70.16) rotate(90)"/><rect class="cls-7" x="89.16" y="169.5" width="14.06" height="1.74" transform="translate(266.56 74.19) rotate(90)"/><rect class="cls-7" x="62.37" y="152.03" width="7.1" height="9.12" transform="translate(-90.67 222.51) rotate(-90)"/><rect class="cls-7" x="62.58" y="155.44" width="14.06" height="1.74" transform="translate(-86.71 225.92) rotate(-90)"/><rect class="cls-7" x="66.73" y="155.72" width="14.06" height="1.74" transform="translate(-82.83 230.35) rotate(-90)"/><rect class="cls-7" x="81.42" y="144.51" width="7.1" height="24.17" transform="translate(-71.62 241.56) rotate(-90)"/><rect class="cls-7" x="100.98" y="151.4" width="7.1" height="10.37" transform="translate(261.12 52.06) rotate(90)"/><rect class="cls-7" x="93.19" y="155.44" width="14.06" height="1.74" transform="translate(256.53 56.1) rotate(90)"/><rect class="cls-7" x="89.16" y="155.44" width="14.06" height="1.74" transform="translate(252.5 60.13) rotate(90)"/></g></g></svg>