<svg id="card_back" xmlns="http://www.w3.org/2000/svg" xmlns:xlink="http://www.w3.org/1999/xlink" viewBox="0 0 171.08 256.12"><defs><style>.cls-1{fill:none;}.cls-2{fill:#7496a6;stroke:#ced8dd;}.cls-2,.cls-3,.cls-4{stroke-miterlimit:10;}.cls-3{fill:#e2ccdb;stroke:#cbb7a1;}.cls-4{fill:#fff;stroke:#fdfcfd;}.cls-5{stroke:#ecafc7;stroke-linejoin:round;stroke-width:2px;fill:url(#New_Pattern_2);}</style><pattern id="New_Pattern_2" data-name="New Pattern 2" width="90.71" height="87.87" patternUnits="userSpaceOnUse" viewBox="0 0 90.71 87.87"><rect class="cls-1" width="90.71" height="87.87"/><polygon class="cls-2" points="68.73 107.19 49.41 87.87 68.73 68.55 88.05 87.87 68.73 107.19"/><polygon class="cls-3" points="90.71 46.58 110.03 65.9 90.71 85.22 71.39 65.9 90.71 46.58"/><polygon class="cls-2" points="21.98 68.55 41.3 87.87 21.98 107.19 2.66 87.87 21.98 68.55"/><polygon class="cls-3" points="0 46.58 19.32 65.9 0 85.22 -19.32 65.9 0 46.58"/><polygon class="cls-2" points="68.73 19.32 49.41 0 68.73 -19.32 88.05 0 68.73 19.32"/><polygon class="cls-3" points="90.71 41.3 71.39 21.98 90.71 2.66 110.03 21.98 90.71 41.3"/><polygon class="cls-2" points="23.38 63.26 4.06 43.94 23.38 24.62 42.7 43.94 23.38 63.26"/><polygon class="cls-3" points="45.35 85.24 26.03 65.92 45.35 46.6 64.67 65.92 45.35 85.24"/><polygon class="cls-2" points="67.33 24.62 86.65 43.94 67.33 63.26 48.01 43.94 67.33 24.62"/><polygon class="cls-3" points="45.35 2.64 64.67 21.96 45.35 41.28 26.03 21.96 45.35 2.64"/><polygon class="cls-3" points="0 41.3 -19.32 21.98 0 2.66 19.32 21.98 0 41.3"/><polygon class="cls-2" points="21.98 -19.32 41.3 0 21.98 19.32 2.66 0 21.98 -19.32"/></pattern></defs><title>cards</title><rect class="cls-4" x="0.5" y="0.5" width="170.08" height="255.12" rx="7.14"/><rect class="cls-5" x="9.63" y="10.85" width="151.83" height="234.41"/></svg>