<svg xmlns="http://www.w3.org/2000/svg" viewBox="0 0 171.08 256.12"><defs><style>.cls-1,.cls-4{fill:#fff;}.cls-1{stroke:#fdfcfd;}.cls-1,.cls-3,.cls-4,.cls-5,.cls-6{stroke-miterlimit:10;}.cls-2{fill:#abd19e;}.cls-3{fill:#d0c4ca;stroke-width:4px;}.cls-3,.cls-6{stroke:#fff;}.cls-4,.cls-5{stroke:#f5f2f3;}.cls-4,.cls-5,.cls-6{stroke-width:2px;}.cls-5{fill:#c3e0c2;}.cls-6{fill:#edf3ea;}.cls-7{fill:#a5c4a5;}</style></defs><title>cards</title><g id="card_green"><rect class="cls-1" x="0.58" y="0.64" width="170.08" height="255.12" rx="7.14"/><rect class="cls-2" x="9.71" y="10.99" width="151.83" height="234.41"/><rect class="cls-3" x="20.44" y="29.86" width="130.37" height="196.67"/><rect class="cls-4" x="26.95" y="36.99" width="117.33" height="180.69"/><rect class="cls-5" x="26.95" y="37.85" width="117.33" height="180.69"/><circle class="cls-6" cx="85.62" cy="128.2" r="69.39"/><g id="seven_rails"><rect class="cls-7" x="62.45" y="81.6" width="7.1" height="9.12" transform="translate(-20.16 152.16) rotate(-90)"/><rect class="cls-7" x="62.66" y="85.01" width="14.06" height="1.74" transform="translate(-16.2 155.57) rotate(-90)"/><rect class="cls-7" x="66.81" y="85.29" width="14.06" height="1.74" transform="translate(-12.32 160) rotate(-90)"/><rect class="cls-7" x="81.5" y="74.08" width="7.1" height="24.17" transform="translate(-1.11 171.21) rotate(-90)"/><rect class="cls-7" x="101.06" y="80.98" width="7.1" height="10.37" transform="translate(190.77 -18.45) rotate(90)"/><rect class="cls-7" x="93.27" y="85.01" width="14.06" height="1.74" transform="translate(186.18 -14.41) rotate(90)"/><rect class="cls-7" x="89.24" y="85.01" width="14.06" height="1.74" transform="translate(182.15 -10.38) rotate(90)"/><rect class="cls-7" x="62.45" y="109.72" width="7.1" height="9.12" transform="translate(-48.28 180.28) rotate(-90)"/><rect class="cls-7" x="62.66" y="113.13" width="14.06" height="1.74" transform="translate(-44.31 183.69) rotate(-90)"/><rect class="cls-7" x="66.81" y="113.41" width="14.06" height="1.74" transform="translate(-40.44 188.12) rotate(-90)"/><rect class="cls-7" x="81.5" y="102.19" width="7.1" height="24.17" transform="translate(-29.22 199.33) rotate(-90)"/><rect class="cls-7" x="101.06" y="109.09" width="7.1" height="10.37" transform="translate(218.89 9.67) rotate(90)"/><rect class="cls-7" x="93.27" y="113.13" width="14.06" height="1.74" transform="translate(214.3 13.7) rotate(90)"/><rect class="cls-7" x="89.24" y="113.13" width="14.06" height="1.74" transform="translate(210.27 17.74) rotate(90)"/><rect class="cls-7" x="62.45" y="95.66" width="7.1" height="9.12" transform="translate(-34.22 166.22) rotate(-90)"/><rect class="cls-7" x="62.66" y="99.07" width="14.06" height="1.74" transform="translate(-30.26 169.63) rotate(-90)"/><rect class="cls-7" x="66.81" y="99.35" width="14.06" height="1.74" transform="translate(-26.38 174.06) rotate(-90)"/><rect class="cls-7" x="81.5" y="88.14" width="7.1" height="24.17" transform="translate(-15.17 185.27) rotate(-90)"/><rect class="cls-7" x="101.06" y="95.03" width="7.1" height="10.37" transform="translate(204.83 -4.39) rotate(90)"/><rect class="cls-7" x="93.27" y="99.07" width="14.06" height="1.74" transform="translate(200.24 -0.35) rotate(90)"/><rect class="cls-7" x="89.24" y="99.07" width="14.06" height="1.74" transform="translate(196.21 3.68) rotate(90)"/><rect class="cls-7" x="62.45" y="137.84" width="7.1" height="9.12" transform="translate(-76.39 208.39) rotate(-90)"/><rect class="cls-7" x="62.66" y="141.25" width="14.06" height="1.74" transform="translate(-72.43 211.8) rotate(-90)"/><rect class="cls-7" x="66.81" y="141.52" width="14.06" height="1.74" transform="translate(-68.55 216.24) rotate(-90)"/><rect class="cls-7" x="81.5" y="130.31" width="7.1" height="24.17" transform="translate(-57.34 227.45) rotate(-90)"/><rect class="cls-7" x="101.06" y="137.21" width="7.1" height="10.37" transform="translate(247.01 37.78) rotate(90)"/><rect class="cls-7" x="93.27" y="141.25" width="14.06" height="1.74" transform="translate(242.41 41.82) rotate(90)"/><rect class="cls-7" x="89.24" y="141.25" width="14.06" height="1.74" transform="translate(238.38 45.85) rotate(90)"/><rect class="cls-7" x="62.45" y="123.78" width="7.1" height="9.12" transform="translate(-62.34 194.34) rotate(-90)"/><rect class="cls-7" x="62.66" y="127.19" width="14.06" height="1.74" transform="translate(-58.37 197.75) rotate(-90)"/><rect class="cls-7" x="66.81" y="127.46" width="14.06" height="1.74" transform="translate(-54.49 202.18) rotate(-90)"/><rect class="cls-7" x="81.5" y="116.25" width="7.1" height="24.17" transform="translate(-43.28 213.39) rotate(-90)"/><rect class="cls-7" x="101.06" y="123.15" width="7.1" height="10.37" transform="translate(232.95 23.72) rotate(90)"/><rect class="cls-7" x="93.27" y="127.19" width="14.06" height="1.74" transform="translate(228.36 27.76) rotate(90)"/><rect class="cls-7" x="89.24" y="127.19" width="14.06" height="1.74" transform="translate(224.32 31.79) rotate(90)"/><rect class="cls-7" x="62.45" y="165.95" width="7.1" height="9.12" transform="translate(-104.51 236.51) rotate(-90)"/><rect class="cls-7" x="62.66" y="169.36" width="14.06" height="1.74" transform="translate(-100.55 239.92) rotate(-90)"/><rect class="cls-7" x="66.81" y="169.64" width="14.06" height="1.74" transform="translate(-96.67 244.35) rotate(-90)"/><rect class="cls-7" x="81.5" y="158.43" width="7.1" height="24.17" transform="translate(-85.46 255.56) rotate(-90)"/><rect class="cls-7" x="101.06" y="165.32" width="7.1" height="10.37" transform="translate(275.12 65.9) rotate(90)"/><rect class="cls-7" x="93.27" y="169.36" width="14.06" height="1.74" transform="translate(270.53 69.94) rotate(90)"/><rect class="cls-7" x="89.24" y="169.36" width="14.06" height="1.74" transform="translate(266.5 73.97) rotate(90)"/><rect class="cls-7" x="62.45" y="151.89" width="7.1" height="9.12" transform="translate(-90.45 222.45) rotate(-90)"/><rect class="cls-7" x="62.66" y="155.3" width="14.06" height="1.74" transform="translate(-86.49 225.86) rotate(-90)"/><rect class="cls-7" x="66.81" y="155.58" width="14.06" height="1.74" transform="translate(-82.61 230.29) rotate(-90)"/><rect class="cls-7" x="81.5" y="144.37" width="7.1" height="24.17" transform="translate(-71.4 241.51) rotate(-90)"/><rect class="cls-7" x="101.06" y="151.27" width="7.1" height="10.37" transform="translate(261.06 51.84) rotate(90)"/><rect class="cls-7" x="93.27" y="155.3" width="14.06" height="1.74" transform="translate(256.47 55.88) rotate(90)"/><rect class="cls-7" x="89.24" y="155.3" width="14.06" height="1.74" transform="translate(252.44 59.91) rotate(90)"/></g></g></svg>