<svg xmlns="http://www.w3.org/2000/svg" viewBox="0 0 171.08 256.12"><defs><style>.cls-1,.cls-4{fill:#fff;}.cls-1{stroke:#fdfcfd;}.cls-1,.cls-3,.cls-4,.cls-5,.cls-6{stroke-miterlimit:10;}.cls-2,.cls-5{fill:#fa6861;}.cls-3{fill:#fab347;}.cls-3,.cls-4,.cls-5,.cls-6{stroke:#f5f2f3;stroke-width:2px;}.cls-6{fill:#fde1da;}.cls-7{fill:#e06961;}</style></defs><title>cards</title><g id="card_red"><rect class="cls-1" x="0.5" y="0.5" width="170.08" height="255.12" rx="7.14"/><rect class="cls-2" x="9.63" y="10.85" width="151.83" height="234.41"/><rect class="cls-3" x="20.36" y="29.73" width="130.37" height="196.67"/><rect class="cls-4" x="26.87" y="36.85" width="117.33" height="180.69"/><rect class="cls-5" x="26.87" y="37.71" width="117.33" height="180.69"/><circle class="cls-6" cx="85.54" cy="128.06" r="69.39"/><g id="seven_rails"><rect class="cls-7" x="62.37" y="81.46" width="7.1" height="9.12" transform="translate(-20.1 151.94) rotate(-90)"/><rect class="cls-7" x="62.58" y="84.87" width="14.06" height="1.74" transform="translate(-16.14 155.35) rotate(-90)"/><rect class="cls-7" x="66.73" y="85.15" width="14.06" height="1.74" transform="translate(-12.26 159.78) rotate(-90)"/><rect class="cls-7" x="81.42" y="73.94" width="7.1" height="24.17" transform="translate(-1.05 171) rotate(-90)"/><rect class="cls-7" x="100.98" y="80.84" width="7.1" height="10.37" transform="translate(190.55 -18.51) rotate(90)"/><rect class="cls-7" x="93.19" y="84.87" width="14.06" height="1.74" transform="translate(185.96 -14.47) rotate(90)"/><rect class="cls-7" x="89.16" y="84.87" width="14.06" height="1.74" transform="translate(181.93 -10.44) rotate(90)"/><rect class="cls-7" x="62.37" y="109.58" width="7.1" height="9.12" transform="translate(-48.22 180.06) rotate(-90)"/><rect class="cls-7" x="62.58" y="112.99" width="14.06" height="1.74" transform="translate(-44.26 183.47) rotate(-90)"/><rect class="cls-7" x="66.73" y="113.27" width="14.06" height="1.74" transform="translate(-40.38 187.9) rotate(-90)"/><rect class="cls-7" x="81.42" y="102.06" width="7.1" height="24.17" transform="translate(-29.17 199.11) rotate(-90)"/><rect class="cls-7" x="100.98" y="108.95" width="7.1" height="10.37" transform="translate(218.67 9.61) rotate(90)"/><rect class="cls-7" x="93.19" y="112.99" width="14.06" height="1.74" transform="translate(214.08 13.65) rotate(90)"/><rect class="cls-7" x="89.16" y="112.99" width="14.06" height="1.74" transform="translate(210.05 17.68) rotate(90)"/><rect class="cls-7" x="62.37" y="95.52" width="7.1" height="9.12" transform="translate(-34.16 166) rotate(-90)"/><rect class="cls-7" x="62.58" y="98.93" width="14.06" height="1.74" transform="translate(-30.2 169.41) rotate(-90)"/><rect class="cls-7" x="66.73" y="99.21" width="14.06" height="1.74" transform="translate(-26.32 173.84) rotate(-90)"/><rect class="cls-7" x="81.42" y="88" width="7.1" height="24.17" transform="translate(-15.11 185.05) rotate(-90)"/><rect class="cls-7" x="100.98" y="94.9" width="7.1" height="10.37" transform="translate(204.61 -4.45) rotate(90)"/><rect class="cls-7" x="93.19" y="98.93" width="14.06" height="1.74" transform="translate(200.02 -0.41) rotate(90)"/><rect class="cls-7" x="89.16" y="98.93" width="14.06" height="1.74" transform="translate(195.99 3.62) rotate(90)"/><rect class="cls-7" x="62.37" y="137.7" width="7.1" height="9.12" transform="translate(-76.34 208.17) rotate(-90)"/><rect class="cls-7" x="62.58" y="141.11" width="14.06" height="1.74" transform="translate(-72.37 211.58) rotate(-90)"/><rect class="cls-7" x="66.73" y="141.38" width="14.06" height="1.74" transform="translate(-68.49 216.02) rotate(-90)"/><rect class="cls-7" x="81.42" y="130.17" width="7.1" height="24.17" transform="translate(-57.28 227.23) rotate(-90)"/><rect class="cls-7" x="100.98" y="137.07" width="7.1" height="10.37" transform="translate(246.79 37.72) rotate(90)"/><rect class="cls-7" x="93.19" y="141.11" width="14.06" height="1.74" transform="translate(242.2 41.76) rotate(90)"/><rect class="cls-7" x="89.16" y="141.11" width="14.06" height="1.74" transform="translate(238.16 45.79) rotate(90)"/><rect class="cls-7" x="62.37" y="123.64" width="7.1" height="9.12" transform="translate(-62.28 194.12) rotate(-90)"/><rect class="cls-7" x="62.58" y="127.05" width="14.06" height="1.74" transform="translate(-58.31 197.53) rotate(-90)"/><rect class="cls-7" x="66.73" y="127.33" width="14.06" height="1.74" transform="translate(-54.44 201.96) rotate(-90)"/><rect class="cls-7" x="81.42" y="116.11" width="7.1" height="24.17" transform="translate(-43.22 213.17) rotate(-90)"/><rect class="cls-7" x="100.98" y="123.01" width="7.1" height="10.37" transform="translate(232.73 23.67) rotate(90)"/><rect class="cls-7" x="93.19" y="127.05" width="14.06" height="1.74" transform="translate(228.14 27.7) rotate(90)"/><rect class="cls-7" x="89.16" y="127.05" width="14.06" height="1.74" transform="translate(224.11 31.74) rotate(90)"/><rect class="cls-7" x="62.37" y="165.81" width="7.1" height="9.12" transform="translate(-104.45 236.29) rotate(-90)"/><rect class="cls-7" x="62.58" y="169.22" width="14.06" height="1.74" transform="translate(-100.49 239.7) rotate(-90)"/><rect class="cls-7" x="66.73" y="169.5" width="14.06" height="1.74" transform="translate(-96.61 244.13) rotate(-90)"/><rect class="cls-7" x="81.42" y="158.29" width="7.1" height="24.17" transform="translate(-85.4 255.35) rotate(-90)"/><rect class="cls-7" x="100.98" y="165.19" width="7.1" height="10.37" transform="translate(274.9 65.84) rotate(90)"/><rect class="cls-7" x="93.19" y="169.22" width="14.06" height="1.74" transform="translate(270.31 69.88) rotate(90)"/><rect class="cls-7" x="89.16" y="169.22" width="14.06" height="1.74" transform="translate(266.28 73.91) rotate(90)"/><rect class="cls-7" x="62.37" y="151.76" width="7.1" height="9.12" transform="translate(-90.39 222.23) rotate(-90)"/><rect class="cls-7" x="62.58" y="155.17" width="14.06" height="1.74" transform="translate(-86.43 225.64) rotate(-90)"/><rect class="cls-7" x="66.73" y="155.44" width="14.06" height="1.74" transform="translate(-82.55 230.08) rotate(-90)"/><rect class="cls-7" x="81.42" y="144.23" width="7.1" height="24.17" transform="translate(-71.34 241.29) rotate(-90)"/><rect class="cls-7" x="100.98" y="151.13" width="7.1" height="10.37" transform="translate(260.85 51.78) rotate(90)"/><rect class="cls-7" x="93.19" y="155.17" width="14.06" height="1.74" transform="translate(256.25 55.82) rotate(90)"/><rect class="cls-7" x="89.16" y="155.17" width="14.06" height="1.74" transform="translate(252.22 59.85) rotate(90)"/></g></g></svg>