<svg xmlns="http://www.w3.org/2000/svg" xmlns:xlink="http://www.w3.org/1999/xlink" viewBox="0 0 171.08 256.12"><defs><style>.cls-1,.cls-4{fill:#fff;}.cls-1{stroke:#fdfcfd;}.cls-1,.cls-3,.cls-4,.cls-5,.cls-6{stroke-miterlimit:10;}.cls-2{fill:url(#linear-gradient);}.cls-3{fill:#fde1da;}.cls-3,.cls-4,.cls-5,.cls-6{stroke:#f5f2f3;stroke-width:2px;}.cls-5{fill:url(#linear-gradient-2);}.cls-6{fill:url(#linear-gradient-3);}.cls-7{fill:#3d3d3d;}</style><linearGradient id="linear-gradient" x1="9.63" y1="128.2" x2="161.45" y2="128.2" gradientUnits="userSpaceOnUse"><stop offset="0" stop-color="#fa6861"/><stop offset="1" stop-color="#f5e77d"/></linearGradient><linearGradient id="linear-gradient-2" x1="26.87" y1="128.2" x2="144.21" y2="128.2" gradientUnits="userSpaceOnUse"><stop offset="0" stop-color="#f1b0ca"/><stop offset="1" stop-color="#f5e77d"/></linearGradient><linearGradient id="linear-gradient-3" x1="16.15" y1="128.2" x2="154.93" y2="128.2" gradientUnits="userSpaceOnUse"><stop offset="0" stop-color="#c3e0c2"/><stop offset="1" stop-color="#f5e77d"/></linearGradient></defs><title>cards</title><g id="card_wild"><rect class="cls-1" x="0.5" y="0.64" width="170.08" height="255.12" rx="7.14"/><rect class="cls-2" x="9.63" y="10.99" width="151.83" height="234.41"/><rect class="cls-3" x="20.36" y="29.86" width="130.37" height="196.67"/><rect class="cls-4" x="26.87" y="36.99" width="117.33" height="180.69"/><rect class="cls-5" x="26.87" y="37.85" width="117.33" height="180.69"/><circle class="cls-6" cx="85.54" cy="128.2" r="69.39"/><path class="cls-7" d="M91.72,148.48l-12.62,0a41.89,41.89,0,0,1-4.87,8.18l17.51,0,0-8.17m16.35,8.12,0,8.17-8.16,0,0,8.17-8.17,0,0-8.17-28.57.08,0-8.17H69a44.16,44.16,0,0,0-.15-57.16l-5.84,0,0-8.16,28.57-.08,0-8.16,8.17,0,0,8.17,8.16,0,0,8.17-8.17,0,.16,57.15,8.16,0M79,107.69l12.61,0,0-8.17-17.52.05A42.4,42.4,0,0,1,79,107.69m12.62,4-10.94,0a49.64,49.64,0,0,1,2.15,8.16l8.81,0,0-8.17m0,12.25-8.33,0,.18,4.08-.15,4.09,8.33,0,0-8.16m0,12.25-8.82,0a49.92,49.92,0,0,1-2.1,8.17l10.94,0Z"/></g></svg>