<svg xmlns="http://www.w3.org/2000/svg" viewBox="0 0 171.08 256.12"><defs><style>.cls-1,.cls-4{fill:#fff;}.cls-1{stroke:#fdfcfd;}.cls-1,.cls-3,.cls-4,.cls-5,.cls-6{stroke-miterlimit:10;}.cls-2,.cls-5{fill:#23474e;}.cls-3{fill:#bc6b61;}.cls-3,.cls-4,.cls-5,.cls-6{stroke:#f5f2f3;stroke-width:2px;}.cls-6{fill:#c8c5cb;}.cls-7{fill:#0d2930;}</style></defs><title>cards</title><g id="card_black"><rect class="cls-1" x="0.5" y="1.19" width="170.08" height="255.12" rx="7.14"/><rect class="cls-2" x="9.63" y="11.55" width="151.83" height="234.41"/><rect class="cls-3" x="20.36" y="30.42" width="130.37" height="196.67"/><rect class="cls-4" x="26.87" y="37.54" width="117.33" height="180.69"/><rect class="cls-5" x="26.87" y="38.41" width="117.33" height="180.69"/><circle class="cls-6" cx="85.54" cy="128.75" r="69.39"/><g id="seven_rails"><rect class="cls-7" x="62.37" y="82.16" width="7.1" height="9.12" transform="translate(-20.8 152.63) rotate(-90)"/><rect class="cls-7" x="62.58" y="85.57" width="14.06" height="1.74" transform="translate(-16.83 156.04) rotate(-90)"/><rect class="cls-7" x="66.73" y="85.84" width="14.06" height="1.74" transform="translate(-12.95 160.48) rotate(-90)"/><rect class="cls-7" x="81.42" y="74.63" width="7.1" height="24.17" transform="translate(-1.74 171.69) rotate(-90)"/><rect class="cls-7" x="100.98" y="81.53" width="7.1" height="10.37" transform="translate(191.25 -17.82) rotate(90)"/><rect class="cls-7" x="93.19" y="85.57" width="14.06" height="1.74" transform="translate(186.65 -13.78) rotate(90)"/><rect class="cls-7" x="89.16" y="85.57" width="14.06" height="1.74" transform="translate(182.62 -9.75) rotate(90)"/><rect class="cls-7" x="62.37" y="110.27" width="7.1" height="9.12" transform="translate(-48.91 180.75) rotate(-90)"/><rect class="cls-7" x="62.58" y="113.68" width="14.06" height="1.74" transform="translate(-44.95 184.16) rotate(-90)"/><rect class="cls-7" x="66.73" y="113.96" width="14.06" height="1.74" transform="translate(-41.07 188.59) rotate(-90)"/><rect class="cls-7" x="81.42" y="102.75" width="7.1" height="24.17" transform="translate(-29.86 199.8) rotate(-90)"/><rect class="cls-7" x="100.98" y="109.65" width="7.1" height="10.37" transform="translate(219.36 10.3) rotate(90)"/><rect class="cls-7" x="93.19" y="113.68" width="14.06" height="1.74" transform="translate(214.77 14.34) rotate(90)"/><rect class="cls-7" x="89.16" y="113.68" width="14.06" height="1.74" transform="translate(210.74 18.37) rotate(90)"/><rect class="cls-7" x="62.37" y="96.22" width="7.1" height="9.12" transform="translate(-34.85 166.69) rotate(-90)"/><rect class="cls-7" x="62.58" y="99.62" width="14.06" height="1.74" transform="translate(-30.89 170.1) rotate(-90)"/><rect class="cls-7" x="66.73" y="99.9" width="14.06" height="1.74" transform="translate(-27.01 174.53) rotate(-90)"/><rect class="cls-7" x="81.42" y="88.69" width="7.1" height="24.17" transform="translate(-15.8 185.75) rotate(-90)"/><rect class="cls-7" x="100.98" y="95.59" width="7.1" height="10.37" transform="translate(205.3 -3.76) rotate(90)"/><rect class="cls-7" x="93.19" y="99.62" width="14.06" height="1.74" transform="translate(200.71 0.28) rotate(90)"/><rect class="cls-7" x="89.16" y="99.62" width="14.06" height="1.74" transform="translate(196.68 4.31) rotate(90)"/><rect class="cls-7" x="62.37" y="138.39" width="7.1" height="9.12" transform="translate(-77.03 208.87) rotate(-90)"/><rect class="cls-7" x="62.58" y="141.8" width="14.06" height="1.74" transform="translate(-73.07 212.28) rotate(-90)"/><rect class="cls-7" x="66.73" y="142.08" width="14.06" height="1.74" transform="translate(-69.19 216.71) rotate(-90)"/><rect class="cls-7" x="81.42" y="130.86" width="7.1" height="24.17" transform="translate(-57.97 227.92) rotate(-90)"/><rect class="cls-7" x="100.98" y="137.76" width="7.1" height="10.37" transform="translate(247.48 38.42) rotate(90)"/><rect class="cls-7" x="93.19" y="141.8" width="14.06" height="1.74" transform="translate(242.89 42.45) rotate(90)"/><rect class="cls-7" x="89.16" y="141.8" width="14.06" height="1.74" transform="translate(238.86 46.49) rotate(90)"/><rect class="cls-7" x="62.37" y="124.33" width="7.1" height="9.12" transform="translate(-62.97 194.81) rotate(-90)"/><rect class="cls-7" x="62.58" y="127.74" width="14.06" height="1.74" transform="translate(-59.01 198.22) rotate(-90)"/><rect class="cls-7" x="66.73" y="128.02" width="14.06" height="1.74" transform="translate(-55.13 202.65) rotate(-90)"/><rect class="cls-7" x="81.42" y="116.81" width="7.1" height="24.17" transform="translate(-43.92 213.86) rotate(-90)"/><rect class="cls-7" x="100.98" y="123.7" width="7.1" height="10.37" transform="translate(233.42 24.36) rotate(90)"/><rect class="cls-7" x="93.19" y="127.74" width="14.06" height="1.74" transform="translate(228.83 28.4) rotate(90)"/><rect class="cls-7" x="89.16" y="127.74" width="14.06" height="1.74" transform="translate(224.8 32.43) rotate(90)"/><rect class="cls-7" x="62.37" y="166.51" width="7.1" height="9.12" transform="translate(-105.14 236.98) rotate(-90)"/><rect class="cls-7" x="62.58" y="169.92" width="14.06" height="1.74" transform="translate(-101.18 240.39) rotate(-90)"/><rect class="cls-7" x="66.73" y="170.19" width="14.06" height="1.74" transform="translate(-97.3 244.83) rotate(-90)"/><rect class="cls-7" x="81.42" y="158.98" width="7.1" height="24.17" transform="translate(-86.09 256.04) rotate(-90)"/><rect class="cls-7" x="100.98" y="165.88" width="7.1" height="10.37" transform="translate(275.6 66.53) rotate(90)"/><rect class="cls-7" x="93.19" y="169.92" width="14.06" height="1.74" transform="translate(271 70.57) rotate(90)"/><rect class="cls-7" x="89.16" y="169.92" width="14.06" height="1.74" transform="translate(266.97 74.6) rotate(90)"/><rect class="cls-7" x="62.37" y="152.45" width="7.1" height="9.12" transform="translate(-91.09 222.93) rotate(-90)"/><rect class="cls-7" x="62.58" y="155.86" width="14.06" height="1.74" transform="translate(-87.12 226.33) rotate(-90)"/><rect class="cls-7" x="66.73" y="156.13" width="14.06" height="1.74" transform="translate(-83.24 230.77) rotate(-90)"/><rect class="cls-7" x="81.42" y="144.92" width="7.1" height="24.17" transform="translate(-72.03 241.98) rotate(-90)"/><rect class="cls-7" x="100.98" y="151.82" width="7.1" height="10.37" transform="translate(261.54 52.47) rotate(90)"/><rect class="cls-7" x="93.19" y="155.86" width="14.06" height="1.74" transform="translate(256.95 56.51) rotate(90)"/><rect class="cls-7" x="89.16" y="155.86" width="14.06" height="1.74" transform="translate(252.91 60.54) rotate(90)"/></g></g></svg>