<svg xmlns="http://www.w3.org/2000/svg" viewBox="0 0 171.08 256.12"><defs><style>.cls-1,.cls-4{fill:#fff;}.cls-1{stroke:#fdfcfd;}.cls-1,.cls-3,.cls-4,.cls-5,.cls-6{stroke-miterlimit:10;}.cls-2,.cls-5{fill:#8ea4c5;}.cls-3{fill:#c6adc4;stroke-width:3px;}.cls-3,.cls-4,.cls-5{stroke:#f5f2f3;}.cls-4,.cls-5,.cls-6{stroke-width:2px;}.cls-6{fill:#c1cdd8;stroke:#fff;}.cls-7{fill:#7086a9;}</style></defs><title>cards</title><g id="card_blue"><rect class="cls-1" x="0.5" y="0.92" width="170.08" height="255.12" rx="7.14"/><rect class="cls-2" x="9.63" y="11.27" width="151.83" height="234.41"/><rect class="cls-3" x="20.36" y="30.14" width="130.37" height="196.67"/><rect class="cls-4" x="26.87" y="37.27" width="117.33" height="180.69"/><rect class="cls-5" x="26.87" y="38.13" width="117.33" height="180.69"/><circle class="cls-6" cx="85.54" cy="128.47" r="69.39"/><g id="seven_rails"><rect class="cls-7" x="62.37" y="81.88" width="7.1" height="9.12" transform="translate(-20.52 152.36) rotate(-90)"/><rect class="cls-7" x="62.58" y="85.29" width="14.06" height="1.74" transform="translate(-16.56 155.77) rotate(-90)"/><rect class="cls-7" x="66.73" y="85.57" width="14.06" height="1.74" transform="translate(-12.68 160.2) rotate(-90)"/><rect class="cls-7" x="81.42" y="74.36" width="7.1" height="24.17" transform="translate(-1.47 171.41) rotate(-90)"/><rect class="cls-7" x="100.98" y="81.25" width="7.1" height="10.37" transform="translate(190.97 -18.09) rotate(90)"/><rect class="cls-7" x="93.19" y="85.29" width="14.06" height="1.74" transform="translate(186.38 -14.06) rotate(90)"/><rect class="cls-7" x="89.16" y="85.29" width="14.06" height="1.74" transform="translate(182.35 -10.02) rotate(90)"/><rect class="cls-7" x="62.37" y="110" width="7.1" height="9.12" transform="translate(-48.64 180.47) rotate(-90)"/><rect class="cls-7" x="62.58" y="113.41" width="14.06" height="1.74" transform="translate(-44.67 183.88) rotate(-90)"/><rect class="cls-7" x="66.73" y="113.68" width="14.06" height="1.74" transform="translate(-40.79 188.32) rotate(-90)"/><rect class="cls-7" x="81.42" y="102.47" width="7.1" height="24.17" transform="translate(-29.58 199.53) rotate(-90)"/><rect class="cls-7" x="100.98" y="109.37" width="7.1" height="10.37" transform="translate(219.09 10.02) rotate(90)"/><rect class="cls-7" x="93.19" y="113.41" width="14.06" height="1.74" transform="translate(214.49 14.06) rotate(90)"/><rect class="cls-7" x="89.16" y="113.41" width="14.06" height="1.74" transform="translate(210.46 18.09) rotate(90)"/><rect class="cls-7" x="62.37" y="95.94" width="7.1" height="9.12" transform="translate(-34.58 166.42) rotate(-90)"/><rect class="cls-7" x="62.58" y="99.35" width="14.06" height="1.74" transform="translate(-30.61 169.83) rotate(-90)"/><rect class="cls-7" x="66.73" y="99.62" width="14.06" height="1.74" transform="translate(-26.73 174.26) rotate(-90)"/><rect class="cls-7" x="81.42" y="88.41" width="7.1" height="24.17" transform="translate(-15.52 185.47) rotate(-90)"/><rect class="cls-7" x="100.98" y="95.31" width="7.1" height="10.37" transform="translate(205.03 -4.04) rotate(90)"/><rect class="cls-7" x="93.19" y="99.35" width="14.06" height="1.74" transform="translate(200.44 0) rotate(90)"/><rect class="cls-7" x="89.16" y="99.35" width="14.06" height="1.74" transform="translate(196.4 4.03) rotate(90)"/><rect class="cls-7" x="62.37" y="138.11" width="7.1" height="9.12" transform="translate(-76.75 208.59) rotate(-90)"/><rect class="cls-7" x="62.58" y="141.52" width="14.06" height="1.74" transform="translate(-72.79 212) rotate(-90)"/><rect class="cls-7" x="66.73" y="141.8" width="14.06" height="1.74" transform="translate(-68.91 216.43) rotate(-90)"/><rect class="cls-7" x="81.42" y="130.59" width="7.1" height="24.17" transform="translate(-57.7 227.64) rotate(-90)"/><rect class="cls-7" x="100.98" y="137.48" width="7.1" height="10.37" transform="translate(247.2 38.14) rotate(90)"/><rect class="cls-7" x="93.19" y="141.52" width="14.06" height="1.74" transform="translate(242.61 42.18) rotate(90)"/><rect class="cls-7" x="89.16" y="141.52" width="14.06" height="1.74" transform="translate(238.58 46.21) rotate(90)"/><rect class="cls-7" x="62.37" y="124.05" width="7.1" height="9.12" transform="translate(-62.69 194.53) rotate(-90)"/><rect class="cls-7" x="62.58" y="127.46" width="14.06" height="1.74" transform="translate(-58.73 197.94) rotate(-90)"/><rect class="cls-7" x="66.73" y="127.74" width="14.06" height="1.74" transform="translate(-54.85 202.37) rotate(-90)"/><rect class="cls-7" x="81.42" y="116.53" width="7.1" height="24.17" transform="translate(-43.64 213.59) rotate(-90)"/><rect class="cls-7" x="100.98" y="123.43" width="7.1" height="10.37" transform="translate(233.14 24.08) rotate(90)"/><rect class="cls-7" x="93.19" y="127.46" width="14.06" height="1.74" transform="translate(228.55 28.12) rotate(90)"/><rect class="cls-7" x="89.16" y="127.46" width="14.06" height="1.74" transform="translate(224.52 32.15) rotate(90)"/><rect class="cls-7" x="62.37" y="166.23" width="7.1" height="9.12" transform="translate(-104.87 236.71) rotate(-90)"/><rect class="cls-7" x="62.58" y="169.64" width="14.06" height="1.74" transform="translate(-100.9 240.12) rotate(-90)"/><rect class="cls-7" x="66.73" y="169.92" width="14.06" height="1.74" transform="translate(-97.03 244.55) rotate(-90)"/><rect class="cls-7" x="81.42" y="158.7" width="7.1" height="24.17" transform="translate(-85.81 255.76) rotate(-90)"/><rect class="cls-7" x="100.98" y="165.6" width="7.1" height="10.37" transform="translate(275.32 66.26) rotate(90)"/><rect class="cls-7" x="93.19" y="169.64" width="14.06" height="1.74" transform="translate(270.73 70.29) rotate(90)"/><rect class="cls-7" x="89.16" y="169.64" width="14.06" height="1.74" transform="translate(266.69 74.33) rotate(90)"/><rect class="cls-7" x="62.37" y="152.17" width="7.1" height="9.12" transform="translate(-90.81 222.65) rotate(-90)"/><rect class="cls-7" x="62.58" y="155.58" width="14.06" height="1.74" transform="translate(-86.85 226.06) rotate(-90)"/><rect class="cls-7" x="66.73" y="155.86" width="14.06" height="1.74" transform="translate(-82.97 230.49) rotate(-90)"/><rect class="cls-7" x="81.42" y="144.65" width="7.1" height="24.17" transform="translate(-71.76 241.7) rotate(-90)"/><rect class="cls-7" x="100.98" y="151.54" width="7.1" height="10.37" transform="translate(261.26 52.2) rotate(90)"/><rect class="cls-7" x="93.19" y="155.58" width="14.06" height="1.74" transform="translate(256.67 56.24) rotate(90)"/><rect class="cls-7" x="89.16" y="155.58" width="14.06" height="1.74" transform="translate(252.64 60.27) rotate(90)"/></g></g></svg>