<svg xmlns="http://www.w3.org/2000/svg" viewBox="0 0 170.08 256.12"><defs><style>.cls-1,.cls-4{fill:#fff;}.cls-1{stroke:#fdfcfd;}.cls-1,.cls-3,.cls-4,.cls-5,.cls-6{stroke-miterlimit:10;}.cls-2,.cls-5{fill:#f1b0ca;}.cls-3{fill:#c3e0c2;stroke-width:3px;}.cls-3,.cls-4,.cls-5{stroke:#f5f2f3;}.cls-4,.cls-5,.cls-6{stroke-width:2px;}.cls-6{fill:#f9eaee;stroke:#fff;}.cls-7{fill:#db93a5;}</style></defs><title>cards</title><g id="card_pink"><rect class="cls-1" y="-0.22" width="170.08" height="255.12" rx="7.14"/><rect class="cls-2" x="9.13" y="10.13" width="151.83" height="234.41"/><rect class="cls-3" x="19.86" y="29" width="130.37" height="196.67"/><rect class="cls-4" x="26.37" y="36.13" width="117.33" height="180.69"/><rect class="cls-5" x="26.37" y="36.99" width="117.33" height="180.69"/><circle class="cls-6" cx="85.04" cy="127.34" r="69.39"/><g id="seven_rails"><rect class="cls-7" x="61.87" y="80.74" width="7.1" height="9.12" transform="translate(-19.88 150.72) rotate(-90)"/><rect class="cls-7" x="62.08" y="84.15" width="14.06" height="1.74" transform="translate(-15.92 154.13) rotate(-90)"/><rect class="cls-7" x="66.23" y="84.43" width="14.06" height="1.74" transform="translate(-12.04 158.56) rotate(-90)"/><rect class="cls-7" x="80.92" y="73.22" width="7.1" height="24.17" transform="translate(-0.83 169.77) rotate(-90)"/><rect class="cls-7" x="100.48" y="80.11" width="7.1" height="10.37" transform="translate(189.33 -18.73) rotate(90)"/><rect class="cls-7" x="92.69" y="84.15" width="14.06" height="1.74" transform="translate(184.74 -14.69) rotate(90)"/><rect class="cls-7" x="88.66" y="84.15" width="14.06" height="1.74" transform="translate(180.71 -10.66) rotate(90)"/><rect class="cls-7" x="61.87" y="108.86" width="7.1" height="9.12" transform="translate(-48 178.84) rotate(-90)"/><rect class="cls-7" x="62.08" y="112.27" width="14.06" height="1.74" transform="translate(-44.03 182.24) rotate(-90)"/><rect class="cls-7" x="66.23" y="112.54" width="14.06" height="1.74" transform="translate(-40.15 186.68) rotate(-90)"/><rect class="cls-7" x="80.92" y="101.33" width="7.1" height="24.17" transform="translate(-28.94 197.89) rotate(-90)"/><rect class="cls-7" x="100.48" y="108.23" width="7.1" height="10.37" transform="translate(217.45 9.38) rotate(90)"/><rect class="cls-7" x="92.69" y="112.27" width="14.06" height="1.74" transform="translate(212.86 13.42) rotate(90)"/><rect class="cls-7" x="88.66" y="112.27" width="14.06" height="1.74" transform="translate(208.82 17.45) rotate(90)"/><rect class="cls-7" x="61.87" y="94.8" width="7.1" height="9.12" transform="translate(-33.94 164.78) rotate(-90)"/><rect class="cls-7" x="62.08" y="98.21" width="14.06" height="1.74" transform="translate(-29.98 168.19) rotate(-90)"/><rect class="cls-7" x="66.23" y="98.49" width="14.06" height="1.74" transform="translate(-26.1 172.62) rotate(-90)"/><rect class="cls-7" x="80.92" y="87.27" width="7.1" height="24.17" transform="translate(-14.88 183.83) rotate(-90)"/><rect class="cls-7" x="100.48" y="94.17" width="7.1" height="10.37" transform="translate(203.39 -4.67) rotate(90)"/><rect class="cls-7" x="92.69" y="98.21" width="14.06" height="1.74" transform="translate(198.8 -0.64) rotate(90)"/><rect class="cls-7" x="88.66" y="98.21" width="14.06" height="1.74" transform="translate(194.77 3.4) rotate(90)"/><rect class="cls-7" x="61.87" y="136.97" width="7.1" height="9.12" transform="translate(-76.11 206.95) rotate(-90)"/><rect class="cls-7" x="62.08" y="140.38" width="14.06" height="1.74" transform="translate(-72.15 210.36) rotate(-90)"/><rect class="cls-7" x="66.23" y="140.66" width="14.06" height="1.74" transform="translate(-68.27 214.79) rotate(-90)"/><rect class="cls-7" x="80.92" y="129.45" width="7.1" height="24.17" transform="translate(-57.06 226.01) rotate(-90)"/><rect class="cls-7" x="100.48" y="136.35" width="7.1" height="10.37" transform="translate(245.56 37.5) rotate(90)"/><rect class="cls-7" x="92.69" y="140.38" width="14.06" height="1.74" transform="translate(240.97 41.54) rotate(90)"/><rect class="cls-7" x="88.66" y="140.38" width="14.06" height="1.74" transform="translate(236.94 45.57) rotate(90)"/><rect class="cls-7" x="61.87" y="122.92" width="7.1" height="9.12" transform="translate(-62.05 192.89) rotate(-90)"/><rect class="cls-7" x="62.08" y="126.33" width="14.06" height="1.74" transform="translate(-58.09 196.3) rotate(-90)"/><rect class="cls-7" x="66.23" y="126.6" width="14.06" height="1.74" transform="translate(-54.21 200.74) rotate(-90)"/><rect class="cls-7" x="80.92" y="115.39" width="7.1" height="24.17" transform="translate(-43 211.95) rotate(-90)"/><rect class="cls-7" x="100.48" y="122.29" width="7.1" height="10.37" transform="translate(231.51 23.44) rotate(90)"/><rect class="cls-7" x="92.69" y="126.33" width="14.06" height="1.74" transform="translate(226.91 27.48) rotate(90)"/><rect class="cls-7" x="88.66" y="126.33" width="14.06" height="1.74" transform="translate(222.88 31.51) rotate(90)"/><rect class="cls-7" x="61.87" y="165.09" width="7.1" height="9.12" transform="translate(-104.23 235.07) rotate(-90)"/><rect class="cls-7" x="62.08" y="168.5" width="14.06" height="1.74" transform="translate(-100.27 238.48) rotate(-90)"/><rect class="cls-7" x="66.23" y="168.78" width="14.06" height="1.74" transform="translate(-96.39 242.91) rotate(-90)"/><rect class="cls-7" x="80.92" y="157.57" width="7.1" height="24.17" transform="translate(-85.18 254.12) rotate(-90)"/><rect class="cls-7" x="100.48" y="164.46" width="7.1" height="10.37" transform="translate(273.68 65.62) rotate(90)"/><rect class="cls-7" x="92.69" y="168.5" width="14.06" height="1.74" transform="translate(269.09 69.66) rotate(90)"/><rect class="cls-7" x="88.66" y="168.5" width="14.06" height="1.74" transform="translate(265.06 73.69) rotate(90)"/><rect class="cls-7" x="61.87" y="151.03" width="7.1" height="9.12" transform="translate(-90.17 221.01) rotate(-90)"/><rect class="cls-7" x="62.08" y="154.44" width="14.06" height="1.74" transform="translate(-86.21 224.42) rotate(-90)"/><rect class="cls-7" x="66.23" y="154.72" width="14.06" height="1.74" transform="translate(-82.33 228.85) rotate(-90)"/><rect class="cls-7" x="80.92" y="143.51" width="7.1" height="24.17" transform="translate(-71.12 240.06) rotate(-90)"/><rect class="cls-7" x="100.48" y="150.4" width="7.1" height="10.37" transform="translate(259.62 51.56) rotate(90)"/><rect class="cls-7" x="92.69" y="154.44" width="14.06" height="1.74" transform="translate(255.03 55.6) rotate(90)"/><rect class="cls-7" x="88.66" y="154.44" width="14.06" height="1.74" transform="translate(251 59.63) rotate(90)"/></g></g></svg>