<svg xmlns="http://www.w3.org/2000/svg" viewBox="0 0 171.08 256.12"><defs><style>.cls-1,.cls-4{fill:#fff;}.cls-1{stroke:#fdfcfd;}.cls-1,.cls-3,.cls-4,.cls-5,.cls-6{stroke-miterlimit:10;}.cls-2,.cls-5{fill:#f5e77d;}.cls-3{fill:#dfdedc;stroke-width:3px;}.cls-3,.cls-4,.cls-5{stroke:#f5f2f3;}.cls-4,.cls-5{stroke-width:2px;}.cls-6{fill:#fdfae4;stroke:#fff;}.cls-7{fill:#dfc95f;}</style></defs><title>cards</title><g id="card_yellow"><rect class="cls-1" x="0.5" y="1.05" width="170.08" height="255.12" rx="7.14"/><rect class="cls-2" x="9.63" y="11.41" width="151.83" height="234.41"/><rect class="cls-3" x="20.36" y="30.28" width="130.37" height="196.67"/><rect class="cls-4" x="26.87" y="37.41" width="117.33" height="180.69"/><rect class="cls-5" x="26.87" y="38.27" width="117.33" height="180.69"/><circle class="cls-6" cx="85.54" cy="128.61" r="69.39"/><g id="seven_rails"><rect class="cls-7" x="62.37" y="82.02" width="7.1" height="9.12" transform="translate(-20.66 152.5) rotate(-90)"/><rect class="cls-7" x="62.58" y="85.43" width="14.06" height="1.74" transform="translate(-16.69 155.91) rotate(-90)"/><rect class="cls-7" x="66.73" y="85.7" width="14.06" height="1.74" transform="translate(-12.81 160.34) rotate(-90)"/><rect class="cls-7" x="81.42" y="74.49" width="7.1" height="24.17" transform="translate(-1.6 171.55) rotate(-90)"/><rect class="cls-7" x="100.98" y="81.39" width="7.1" height="10.37" transform="translate(191.11 -17.96) rotate(90)"/><rect class="cls-7" x="93.19" y="85.43" width="14.06" height="1.74" transform="translate(186.52 -13.92) rotate(90)"/><rect class="cls-7" x="89.16" y="85.43" width="14.06" height="1.74" transform="translate(182.48 -9.88) rotate(90)"/><rect class="cls-7" x="62.37" y="110.13" width="7.1" height="9.12" transform="translate(-48.77 180.61) rotate(-90)"/><rect class="cls-7" x="62.58" y="113.54" width="14.06" height="1.74" transform="translate(-44.81 184.02) rotate(-90)"/><rect class="cls-7" x="66.73" y="113.82" width="14.06" height="1.74" transform="translate(-40.93 188.45) rotate(-90)"/><rect class="cls-7" x="81.42" y="102.61" width="7.1" height="24.17" transform="translate(-29.72 199.67) rotate(-90)"/><rect class="cls-7" x="100.98" y="109.51" width="7.1" height="10.37" transform="translate(219.22 10.16) rotate(90)"/><rect class="cls-7" x="93.19" y="113.54" width="14.06" height="1.74" transform="translate(214.63 14.2) rotate(90)"/><rect class="cls-7" x="89.16" y="113.54" width="14.06" height="1.74" transform="translate(210.6 18.23) rotate(90)"/><rect class="cls-7" x="62.37" y="96.08" width="7.1" height="9.12" transform="translate(-34.72 166.55) rotate(-90)"/><rect class="cls-7" x="62.58" y="99.49" width="14.06" height="1.74" transform="translate(-30.75 169.96) rotate(-90)"/><rect class="cls-7" x="66.73" y="99.76" width="14.06" height="1.74" transform="translate(-26.87 174.4) rotate(-90)"/><rect class="cls-7" x="81.42" y="88.55" width="7.1" height="24.17" transform="translate(-15.66 185.61) rotate(-90)"/><rect class="cls-7" x="100.98" y="95.45" width="7.1" height="10.37" transform="translate(205.17 -3.9) rotate(90)"/><rect class="cls-7" x="93.19" y="99.49" width="14.06" height="1.74" transform="translate(200.57 0.14) rotate(90)"/><rect class="cls-7" x="89.16" y="99.49" width="14.06" height="1.74" transform="translate(196.54 4.17) rotate(90)"/><rect class="cls-7" x="62.37" y="138.25" width="7.1" height="9.12" transform="translate(-76.89 208.73) rotate(-90)"/><rect class="cls-7" x="62.58" y="141.66" width="14.06" height="1.74" transform="translate(-72.93 212.14) rotate(-90)"/><rect class="cls-7" x="66.73" y="141.94" width="14.06" height="1.74" transform="translate(-69.05 216.57) rotate(-90)"/><rect class="cls-7" x="81.42" y="130.73" width="7.1" height="24.17" transform="translate(-57.84 227.78) rotate(-90)"/><rect class="cls-7" x="100.98" y="137.62" width="7.1" height="10.37" transform="translate(247.34 38.28) rotate(90)"/><rect class="cls-7" x="93.19" y="141.66" width="14.06" height="1.74" transform="translate(242.75 42.32) rotate(90)"/><rect class="cls-7" x="89.16" y="141.66" width="14.06" height="1.74" transform="translate(238.72 46.35) rotate(90)"/><rect class="cls-7" x="62.37" y="124.19" width="7.1" height="9.12" transform="translate(-62.83 194.67) rotate(-90)"/><rect class="cls-7" x="62.58" y="127.6" width="14.06" height="1.74" transform="translate(-58.87 198.08) rotate(-90)"/><rect class="cls-7" x="66.73" y="127.88" width="14.06" height="1.74" transform="translate(-54.99 202.51) rotate(-90)"/><rect class="cls-7" x="81.42" y="116.67" width="7.1" height="24.17" transform="translate(-43.78 213.72) rotate(-90)"/><rect class="cls-7" x="100.98" y="123.57" width="7.1" height="10.37" transform="translate(233.28 24.22) rotate(90)"/><rect class="cls-7" x="93.19" y="127.6" width="14.06" height="1.74" transform="translate(228.69 28.26) rotate(90)"/><rect class="cls-7" x="89.16" y="127.6" width="14.06" height="1.74" transform="translate(224.66 32.29) rotate(90)"/><rect class="cls-7" x="62.37" y="166.37" width="7.1" height="9.12" transform="translate(-105.01 236.84) rotate(-90)"/><rect class="cls-7" x="62.58" y="169.78" width="14.06" height="1.74" transform="translate(-101.04 240.25) rotate(-90)"/><rect class="cls-7" x="66.73" y="170.05" width="14.06" height="1.74" transform="translate(-97.16 244.69) rotate(-90)"/><rect class="cls-7" x="81.42" y="158.84" width="7.1" height="24.17" transform="translate(-85.95 255.9) rotate(-90)"/><rect class="cls-7" x="100.98" y="165.74" width="7.1" height="10.37" transform="translate(275.46 66.39) rotate(90)"/><rect class="cls-7" x="93.19" y="169.78" width="14.06" height="1.74" transform="translate(270.87 70.43) rotate(90)"/><rect class="cls-7" x="89.16" y="169.78" width="14.06" height="1.74" transform="translate(266.83 74.46) rotate(90)"/><rect class="cls-7" x="62.37" y="152.31" width="7.1" height="9.12" transform="translate(-90.95 222.79) rotate(-90)"/><rect class="cls-7" x="62.58" y="155.72" width="14.06" height="1.74" transform="translate(-86.98 226.2) rotate(-90)"/><rect class="cls-7" x="66.73" y="156" width="14.06" height="1.74" transform="translate(-83.11 230.63) rotate(-90)"/><rect class="cls-7" x="81.42" y="144.78" width="7.1" height="24.17" transform="translate(-71.89 241.84) rotate(-90)"/><rect class="cls-7" x="100.98" y="151.68" width="7.1" height="10.37" transform="translate(261.4 52.34) rotate(90)"/><rect class="cls-7" x="93.19" y="155.72" width="14.06" height="1.74" transform="translate(256.81 56.37) rotate(90)"/><rect class="cls-7" x="89.16" y="155.72" width="14.06" height="1.74" transform="translate(252.78 60.41) rotate(90)"/></g></g></svg>